<svg xmlns="http://www.w3.org/2000/svg" width="13" height="32.5" viewBox="0 0 13 32.5"><defs><style>.a{fill:#fff;}</style></defs><path class="a" d="M0,.542v3.25c0,.009,0,.016,0,.025s0,.016,0,.024L2.171,27.674a.542.542,0,0,0,.537.492H3.792v1.176A1.625,1.625,0,0,0,4.333,32.5H8.667a1.625,1.625,0,0,0,.542-3.157V28.167h1.083a.542.542,0,0,0,.542-.492L13,3.841c0-.008,0-.016,0-.024s0-.016,0-.025V.542A.542.542,0,0,0,12.458,0H.542A.542.542,0,0,0,0,.542ZM8.667,31.417H4.333a.542.542,0,0,1,0-1.083H8.667a.542.542,0,1,1,0,1.083ZM8.125,29.25H4.875V28.167h3.25ZM9.8,27.083H3.2L1.138,4.333h10.73Zm-8.714-26H11.917V3.25H1.083Zm0,0"/></svg>