<svg xmlns="http://www.w3.org/2000/svg" width="11.678" height="35.033" viewBox="0 0 11.678 35.033"><defs><style>.a{fill:#fff;}</style></defs><path class="a" d="M185.342,16h-7.007A2.338,2.338,0,0,0,176,18.336V49.281a1.754,1.754,0,0,0,1.752,1.752h8.174a1.754,1.754,0,0,0,1.752-1.752V18.336A2.338,2.338,0,0,0,185.342,16Zm-7.007,1.168h7.007a1.169,1.169,0,0,1,1.168,1.168V26.51h-2.391l-.531-5.313a.584.584,0,0,0-.581-.525h-4.087v1.168h1.106l-.467,4.671h-2.391V18.336A1.169,1.169,0,0,1,178.336,17.168Zm4.143,4.671.467,4.671h-2.213l.467-4.671Zm4.032,5.839v1.168h-9.342V27.678Zm-.584,22.187h-8.174a.585.585,0,0,1-.584-.584V30.013h9.342V49.281a.585.585,0,0,1-.584.584Z" transform="translate(-176 -16)"/></svg>