<svg xmlns="http://www.w3.org/2000/svg" width="73.5" height="20.377" viewBox="0 0 73.5 20.377"><defs><style>.a,.b{fill:#fff;}.b{stroke:#fff;stroke-miterlimit:10;}</style></defs><g transform="translate(0 0.003)"><g transform="translate(0 -0.003)"><path class="a" d="M1.822,6.936H0V5.864H1.822V5.216C1.822.563,4.937,0,6.389,0A4.335,4.335,0,0,1,7.15.054V1.16A3.462,3.462,0,0,0,6.469,1.1c-1.156,0-3.441.452-3.441,4.09v.676H7V6.936H3.036V19.89H1.822Z" transform="translate(0 0.003)"/><path class="a" d="M68.08.85h1.214V17.377c0,1.975,1.042,2.2,1.7,2.2a3.536,3.536,0,0,0,.434-.028v1.1a2.814,2.814,0,0,1-.511.056,2.664,2.664,0,0,1-2.835-2.961Z" transform="translate(-56.605 -0.705)"/><path class="a" d="M107.373,39.42h1.745l-.533,6.228.065.043,5.107-3.6.894,1.532-5.683,2.644v.085l5.683,2.639-.894,1.532-5.107-3.6-.065.043.533,6.234h-1.745l.533-6.234-.065-.043-5.107,3.6-.894-1.532,5.683-2.639v-.085l-5.683-2.637.894-1.532,5.107,3.6.065-.043Z" transform="translate(-84.701 -33.208)"/><path class="a" d="M200.83,33.127h1.221v2.544a6.044,6.044,0,0,1-.116,1.192h.058a6.441,6.441,0,0,1,5.545-4.083c2.894,0,4.256,1.362,4.568,3.931h.058a6.294,6.294,0,0,1,5.494-3.931c3.73,0,4.828,2.2,4.828,5.637v9.166h-1.214V38.851c0-2.724-.55-4.937-3.614-4.937-2.4,0-4.454,2.14-5.089,4.394a7.559,7.559,0,0,0-.289,2.227V47.59h-1.205V38.851c0-2.486-.34-4.937-3.528-4.937-2.574,0-4.6,2.256-5.262,4.655a7.193,7.193,0,0,0-.233,1.96v7.055h-1.214Z" transform="translate(-167.099 -27.699)"/><path class="a" d="M361.286,32.78a7.56,7.56,0,0,0-4.886,1.59l.693.982a6.8,6.8,0,0,1,4.135-1.388c2.312,0,3.957,1.1,3.957,4.3v9.311H366.4V38.245C366.4,34.631,364.611,32.78,361.286,32.78Z" transform="translate(-296.424 -27.699)"/><path class="b" d="M359.892,62.837c-.807-1.093-1.779-2.082-1.977-3.5a3.428,3.428,0,0,1-.039-.438.126.126,0,0,0-.01-.048.247.247,0,0,0-.112-.126.25.25,0,0,0-.114-.031c-.085,0-.192.192-.2.2a17.2,17.2,0,0,0-2.71,5.448c-.388,1.483-.4,3.471,1.176,4.28a3.784,3.784,0,0,0,3.916-.412,3.235,3.235,0,0,0,1.212-2.4,3.927,3.927,0,0,0-.393-1.765A7.237,7.237,0,0,0,359.892,62.837Z" transform="translate(-294.858 -49.206)"/><path class="b" d="M421.341,99.294a2.811,2.811,0,0,1-.695-1.227,1.369,1.369,0,0,0-.017-.17.1.1,0,0,0-.039-.046.09.09,0,0,0-.041-.01c-.029,0-.066.068-.07.072a6.044,6.044,0,0,0-.952,1.912c-.136.521-.14,1.221.412,1.5a1.33,1.33,0,0,0,1.376-.145,1.142,1.142,0,0,0,.191-.194,1.119,1.119,0,0,0,.235-.649,1.362,1.362,0,0,0-.138-.62A2.438,2.438,0,0,0,421.341,99.294Z" transform="translate(-348.742 -81.683)"/></g></g></svg>